<svg xmlns="http://www.w3.org/2000/svg" xmlns:xlink="http://www.w3.org/1999/xlink" viewBox="0,0,256,256" width="50px" height="50px" fill-rule="nonzero"><g fill="#000000" fill-rule="nonzero" stroke="none" stroke-width="1" stroke-linecap="butt" stroke-linejoin="miter" stroke-miterlimit="10" stroke-dasharray="" stroke-dashoffset="0" font-family="none" font-weight="none" font-size="none" text-anchor="none" style="mix-blend-mode: normal"><g transform="scale(5.33333,5.33333)"><path d="M6.198,11.364c-1.521,0.352 -2.493,1.898 -2.117,3.484l0.849,3.577c0.362,1.524 1.858,2.472 3.379,2.119l7.68,-1.779l-4.048,-8.732z"></path><path d="M22.015,7.7l-9.742,2.257l-0.332,0.077l4.048,8.731l0.332,-0.077l9.742,-2.257z"></path><path d="M32.089,5.366l-9.742,2.257l-0.332,0.077l4.048,8.731l0.332,-0.077l9.741,-2.257z"></path><path d="M41.888,9.862l-0.844,-3.669c-0.351,-1.527 -1.858,-2.472 -3.379,-2.12l-5.244,1.215l-0.332,0.077l4.048,8.732l0.332,-0.077l3.307,-0.766c1.521,-0.352 2.463,-1.865 2.112,-3.392z"></path><path d="M4,14.162v8.767c0,1.6 1.283,2.888 2.877,2.888h37.123v-5.296v-0.531c0,-1.564 -1.205,-2.835 -2.738,-2.933v-0.007h-34.385c-1.594,0 -2.877,-1.288 -2.877,-2.888z"></path><path d="M30.295,17.05v8.767h13.705v-5.296v-0.531c0,-1.564 -1.205,-2.835 -2.738,-2.933v-0.007z"></path><path d="M4,22.929v9.461c0,0.856 0.367,1.622 0.953,2.15h39.047v-8.723h-37.123c-1.594,0 -2.877,-1.288 -2.877,-2.888z"></path><path d="M4,22.929v9.461c0,0.856 0.367,1.622 0.953,2.15h12.776v-8.723h-10.852c-1.594,0 -2.877,-1.288 -2.877,-2.888z"></path><path d="M4,31.652v9.461c0,1.599 1.283,2.887 2.877,2.887h34.246c1.594,0 2.877,-1.288 2.877,-2.888v-6.573h-37.123c-1.594,0 -2.877,-1.287 -2.877,-2.887z"></path></g></g></svg>